<mxfile host="app.diagrams.net" agent="Mozilla/5.0 (Windows NT 10.0; Win64; x64) AppleWebKit/537.36 (KHTML, like Gecko) Chrome/134.0.0.0 Safari/537.36 Edg/134.0.0.0" version="26.1.1">
  <diagram name="Page-1" id="dppJE0Hn1dgH6Z_DONid">
    <mxGraphModel dx="1282" dy="565" grid="1" gridSize="10" guides="1" tooltips="1" connect="1" arrows="1" fold="1" page="1" pageScale="1" pageWidth="850" pageHeight="1100" math="0" shadow="0">
      <root>
        <mxCell id="0" />
        <mxCell id="1" parent="0" />
        <mxCell id="XUSUvTWy4rqbbIrAUuDv-2" value="" style="verticalLabelPosition=bottom;html=1;verticalAlign=top;align=center;strokeColor=none;fillColor=#00BEF2;shape=mxgraph.azure.computer;pointerEvents=1;" parent="1" vertex="1">
          <mxGeometry x="650" y="60" width="415" height="170" as="geometry" />
        </mxCell>
        <mxCell id="XUSUvTWy4rqbbIrAUuDv-3" value="" style="sketch=0;aspect=fixed;pointerEvents=1;shadow=0;dashed=0;html=1;strokeColor=none;labelPosition=center;verticalLabelPosition=bottom;verticalAlign=top;align=center;fillColor=#00188D;shape=mxgraph.azure.computer" parent="1" vertex="1">
          <mxGeometry x="50" y="50" width="255.56" height="230" as="geometry" />
        </mxCell>
        <mxCell id="XUSUvTWy4rqbbIrAUuDv-6" value="&lt;font style=&quot;font-size: 14px;&quot; face=&quot;Comic Sans MS&quot;&gt;ping 192.168.0.4&lt;/font&gt;" style="endArrow=classic;html=1;rounded=0;fontStyle=1" parent="1" edge="1">
          <mxGeometry width="50" height="50" relative="1" as="geometry">
            <mxPoint x="320" y="100" as="sourcePoint" />
            <mxPoint x="630" y="99" as="targetPoint" />
            <Array as="points">
              <mxPoint x="450" y="98.75" />
            </Array>
          </mxGeometry>
        </mxCell>
        <mxCell id="XUSUvTWy4rqbbIrAUuDv-9" value="" style="endArrow=classic;html=1;rounded=0;exitX=0.65;exitY=0.996;exitDx=0;exitDy=0;exitPerimeter=0;" parent="1" edge="1">
          <mxGeometry width="50" height="50" relative="1" as="geometry">
            <mxPoint x="177.39400000000003" y="280.00000000000006" as="sourcePoint" />
            <mxPoint x="177.28" y="350.92" as="targetPoint" />
            <Array as="points">
              <mxPoint x="177.28" y="310.92" />
            </Array>
          </mxGeometry>
        </mxCell>
        <mxCell id="XUSUvTWy4rqbbIrAUuDv-10" value="&lt;div&gt;&lt;font style=&quot;font-size: 24px;&quot; face=&quot;Times New Roman&quot;&gt;TOOLS:MSFVENOM,METASPLOITABLE&lt;/font&gt;&lt;/div&gt;&lt;div&gt;&lt;font size=&quot;3&quot; face=&quot;Times New Roman&quot;&gt;&lt;br&gt;&lt;/font&gt;&lt;/div&gt;&lt;div&gt;&lt;font size=&quot;3&quot; face=&quot;Times New Roman&quot;&gt;Creates payload or malware&lt;/font&gt;&lt;br&gt;&lt;/div&gt;" style="rounded=0;whiteSpace=wrap;html=1;" parent="1" vertex="1">
          <mxGeometry x="70" y="350" width="450" height="170" as="geometry" />
        </mxCell>
        <mxCell id="XUSUvTWy4rqbbIrAUuDv-12" value="" style="endArrow=classic;html=1;rounded=0;" parent="1" edge="1">
          <mxGeometry width="50" height="50" relative="1" as="geometry">
            <mxPoint x="840" y="240" as="sourcePoint" />
            <mxPoint x="840" y="340" as="targetPoint" />
          </mxGeometry>
        </mxCell>
        <mxCell id="XUSUvTWy4rqbbIrAUuDv-15" value="&lt;font style=&quot;font-size: 24px;&quot; face=&quot;Times New Roman&quot;&gt;REMOTE ACCESS FROM KALI&lt;/font&gt;" style="rounded=0;whiteSpace=wrap;html=1;" parent="1" vertex="1">
          <mxGeometry x="640" y="360" width="510" height="120" as="geometry" />
        </mxCell>
        <mxCell id="XUSUvTWy4rqbbIrAUuDv-17" value="&lt;b&gt;&lt;font style=&quot;font-size: 14px;&quot; face=&quot;Comic Sans MS&quot;&gt;ping 172.20.10.9&lt;/font&gt;&lt;/b&gt;" style="endArrow=classic;html=1;rounded=0;" parent="1" edge="1">
          <mxGeometry width="50" height="50" relative="1" as="geometry">
            <mxPoint x="630" y="160" as="sourcePoint" />
            <mxPoint x="310" y="160" as="targetPoint" />
          </mxGeometry>
        </mxCell>
      </root>
    </mxGraphModel>
  </diagram>
</mxfile>
